<svg width="61.000000" height="45.000000" viewBox="0 0 61 45" fill="none" xmlns="http://www.w3.org/2000/svg" xmlns:xlink="http://www.w3.org/1999/xlink">
	<desc>
			Created with Pixso.
	</desc>
	<defs/>
	<circle id="Ellipse 9" cx="38.500000" cy="22.500000" r="22.500000" fill="#037E8C" fill-opacity="1.000000"/>
	<path id="Vector" d="M4.12 32.75L4.12 15.22C4.12 15.15 4.12 15.08 4.12 15.01C4.15 14.73 4.21 14.45 4.31 14.19C4.39 13.94 4.52 13.71 4.69 13.5C4.86 13.25 5.09 13.03 5.36 12.89C5.54 12.8 5.69 12.67 5.87 12.6C6.05 12.52 6.24 12.47 6.44 12.46C7.3 12.44 8.16 12.44 9.02 12.44C11.35 12.44 13.67 12.45 15.99 12.46L26.38 12.47C27.42 12.47 28.45 12.47 29.49 12.48C29.92 12.48 30.36 12.52 30.79 12.58C31.03 12.64 31.26 12.74 31.47 12.87C31.65 12.96 31.82 13.07 31.97 13.21C32.22 13.43 32.42 13.69 32.57 13.99C32.66 14.19 32.76 14.37 32.86 14.57C32.9 14.67 32.94 14.77 32.99 14.87C33.14 15.23 33.29 15.6 33.45 15.95C33.53 16.14 33.65 16.32 33.74 16.51C33.79 16.63 33.81 16.76 33.86 16.89C33.91 17.01 33.95 17.09 34 17.19C34.14 17.51 34.28 17.82 34.42 18.13C34.51 18.31 34.62 18.49 34.7 18.67C34.79 18.86 34.85 19.06 34.94 19.25C35.03 19.44 35.14 19.66 35.24 19.86C35.29 19.96 35.33 20.06 35.37 20.15C35.45 20.36 35.51 20.56 35.61 20.76C35.75 21.09 35.9 21.41 36.05 21.72C36.13 21.91 36.24 22.08 36.36 22.25C36.46 22.33 36.57 22.39 36.69 22.43C36.73 22.45 36.79 22.43 36.83 22.44C37.35 22.48 37.88 22.47 38.39 22.57C38.7 22.63 39.01 22.63 39.32 22.66L40.35 22.77C40.72 22.81 41.08 22.85 41.45 22.89C41.79 22.93 42.13 22.96 42.46 23L43.54 23.11C43.87 23.12 44.19 23.16 44.52 23.22C44.88 23.31 45.26 23.24 45.6 23.33C45.95 23.42 46.29 23.37 46.63 23.42C46.96 23.47 47.29 23.57 47.63 23.6C47.89 23.63 48.13 23.73 48.35 23.87C48.61 24.03 48.84 24.23 49.05 24.45C49.19 24.59 49.31 24.75 49.42 24.92C49.32 24.92 49.25 24.93 49.18 24.93C48.57 24.93 47.97 24.95 47.36 24.93C47.07 24.93 46.66 25.27 46.55 25.5C46.48 25.68 46.44 25.87 46.46 26.06C46.46 26.93 46.46 27.81 46.46 28.69C46.46 29.04 46.67 29.28 46.92 29.48C47.06 29.56 47.23 29.61 47.4 29.6C48.1 29.61 48.8 29.6 49.5 29.6L49.7 29.6L49.7 32.74C49.64 32.74 49.58 32.75 49.52 32.75L48.6 32.75C48.18 32.75 48.13 32.7 47.98 32.31C47.89 32.12 47.78 31.95 47.65 31.78C47.46 31.54 47.27 31.31 47.06 31.09C46.79 30.8 46.51 30.53 46.21 30.28C45.97 30.1 45.7 29.94 45.43 29.8C45.19 29.65 44.94 29.52 44.68 29.4C44.41 29.31 44.13 29.23 43.85 29.16C43.62 29.1 43.39 29.04 43.16 28.98C43.09 28.97 43.02 28.96 42.94 28.96C42.46 28.96 41.98 28.95 41.49 28.96C41.14 28.96 40.79 29.03 40.46 29.16C40.29 29.22 40.11 29.23 39.95 29.28C39.78 29.34 39.66 29.4 39.51 29.47C39.42 29.51 39.33 29.56 39.24 29.59C38.88 29.73 38.54 29.92 38.24 30.16C37.85 30.42 37.51 30.73 37.22 31.09C37 31.38 36.73 31.63 36.52 31.91C36.37 32.11 36.25 32.33 36.16 32.56C36.14 32.63 36.1 32.68 36.05 32.72C36 32.76 35.93 32.78 35.86 32.78L18.41 32.78C18.34 32.78 18.28 32.76 18.22 32.72C18.17 32.68 18.13 32.63 18.12 32.56C18.04 32.4 17.95 32.25 17.84 32.11C17.75 31.95 17.64 31.79 17.53 31.64C17.33 31.39 17.12 31.15 16.9 30.92C16.7 30.7 16.48 30.5 16.24 30.32C16 30.13 15.72 29.99 15.46 29.82C15.29 29.72 15.13 29.61 14.95 29.52C14.82 29.47 14.69 29.43 14.56 29.4C14.46 29.36 14.36 29.32 14.25 29.29L13.73 29.1C13.7 29.09 13.66 29.09 13.63 29.08C12.94 28.95 12.23 28.92 11.53 28.97C11.22 28.98 10.92 29.03 10.62 29.09C10.33 29.18 10.04 29.28 9.76 29.39C9.48 29.49 9.21 29.6 8.94 29.73C8.69 29.86 8.46 30.01 8.24 30.18C7.92 30.41 7.63 30.67 7.35 30.95C7.09 31.23 6.84 31.53 6.63 31.85C6.45 32.09 6.34 32.36 6.17 32.61C6.15 32.64 6.12 32.68 6.08 32.7C6.05 32.73 6.01 32.74 5.96 32.75C5.38 32.76 4.79 32.75 4.21 32.75C4.18 32.75 4.15 32.75 4.12 32.75ZM19.89 22.45L32.92 22.45C33.06 22.46 33.2 22.43 33.32 22.36C33.53 22.21 33.66 21.8 33.54 21.59C33.46 21.46 33.4 21.33 33.34 21.19C33.25 21 33.18 20.81 33.09 20.63C33 20.44 32.89 20.25 32.8 20.06C32.68 19.78 32.57 19.5 32.45 19.22C32.35 18.99 32.24 18.76 32.13 18.53C32.09 18.44 32.06 18.34 32.01 18.24C31.91 18.04 31.8 17.84 31.7 17.63C31.6 17.43 31.54 17.24 31.45 17.05C31.35 16.87 31.26 16.7 31.18 16.53C31.09 16.35 31.02 16.12 30.92 15.92C30.8 15.65 30.63 15.39 30.53 15.11C30.48 14.96 30.38 14.83 30.25 14.74C30.12 14.66 29.96 14.62 29.81 14.63C22.19 14.64 14.58 14.64 6.96 14.63C6.91 14.63 6.85 14.63 6.79 14.63C6.5 14.61 6.18 14.96 6.18 15.23C6.18 17.45 6.18 19.67 6.18 21.9C6.18 21.96 6.19 22.03 6.22 22.08C6.28 22.2 6.38 22.3 6.5 22.37C6.62 22.43 6.75 22.46 6.89 22.46C11.22 22.45 15.55 22.44 19.89 22.45ZM29.96 31.14C31.66 31.14 33.36 31.14 35.06 31.14C35.19 31.15 35.31 31.13 35.42 31.07C35.53 31.02 35.62 30.93 35.69 30.82C35.78 30.66 35.67 30.25 35.51 30.14C35.39 30.07 35.24 30.03 35.09 30.05L24.86 30.05C24.79 30.05 24.73 30.05 24.66 30.05C24.56 30.07 24.47 30.12 24.39 30.19C24.31 30.26 24.25 30.35 24.22 30.45C24.2 30.53 24.21 30.62 24.23 30.7C24.25 30.79 24.29 30.86 24.35 30.93C24.4 30.99 24.47 31.05 24.55 31.08C24.63 31.12 24.71 31.14 24.8 31.14C26.52 31.13 28.24 31.14 29.96 31.14ZM22.3 31.14C22.41 31.14 22.53 31.14 22.65 31.14C22.72 31.13 22.79 31.11 22.85 31.08C22.92 31.05 22.97 31.01 23.02 30.95C23.07 30.9 23.1 30.84 23.13 30.77C23.15 30.7 23.16 30.63 23.15 30.56C23.15 30.49 23.13 30.42 23.1 30.35C23.07 30.29 23.02 30.23 22.97 30.19C22.92 30.14 22.85 30.1 22.79 30.08C22.72 30.06 22.65 30.05 22.58 30.05C22.41 30.06 22.24 30.06 22.07 30.05C21.99 30.04 21.91 30.05 21.84 30.07C21.76 30.1 21.69 30.14 21.63 30.2C21.58 30.26 21.54 30.33 21.51 30.41C21.49 30.48 21.48 30.56 21.49 30.64C21.5 30.78 21.55 30.9 21.64 30.99C21.74 31.09 21.86 31.14 22 31.14L22.3 31.14Z" fill="#000000" fill-opacity="1.000000" fill-rule="nonzero"/>
	<path id="Vector" d="M42.17 30.05C43.32 30.03 44.44 30.38 45.36 31.06C46.92 32.19 47.73 33.75 47.76 35.69C47.79 36.85 47.43 37.99 46.74 38.93C45.64 40.48 44.08 41.28 42.18 41.33C41.08 41.36 40 41.04 39.08 40.43C37.37 39.28 36.51 37.66 36.48 35.6C36.48 35.38 36.5 35.16 36.53 34.94C36.62 34.21 36.85 33.52 37.21 32.89C37.57 32.26 38.05 31.7 38.62 31.26C39.62 30.45 40.88 30.02 42.17 30.05ZM39.08 35.69C39.13 35.96 39.05 36.23 39.17 36.51C39.26 36.77 39.38 37.03 39.51 37.28C39.72 37.64 40.01 37.94 40.35 38.18C40.57 38.33 40.81 38.46 41.06 38.55C41.28 38.64 41.52 38.7 41.76 38.73C42.02 38.75 42.28 38.75 42.54 38.73C42.61 38.73 42.67 38.73 42.73 38.71C42.99 38.61 43.25 38.51 43.51 38.4C43.62 38.36 43.73 38.31 43.82 38.23C44.01 38.09 44.19 37.93 44.36 37.77C44.57 37.57 44.74 37.33 44.86 37.07C44.89 36.97 44.94 36.89 44.97 36.79C45.06 36.59 45.12 36.37 45.15 36.14C45.16 35.71 45.24 35.28 45.08 34.84C45.03 34.67 44.96 34.5 44.88 34.34C44.76 34.15 44.63 33.97 44.52 33.78C44.33 33.49 44.08 33.26 43.78 33.09C43.61 33 43.43 32.92 43.25 32.85C43.11 32.78 42.95 32.72 42.79 32.68C42.58 32.64 42.37 32.63 42.15 32.63C41.79 32.62 41.43 32.67 41.08 32.78C40.97 32.81 40.85 32.86 40.75 32.92C40.55 33.04 40.36 33.18 40.17 33.32C39.9 33.52 39.68 33.78 39.51 34.08C39.42 34.24 39.34 34.41 39.27 34.59C39.19 34.78 39.13 34.98 39.09 35.18C39.07 35.35 39.07 35.52 39.08 35.69Z" fill="#000000" fill-opacity="1.000000" fill-rule="nonzero"/>
	<path id="Vector" d="M11.27 30.06C15.3 30.03 17.8 32.6 17.79 35.7C17.8 36.91 17.41 38.09 16.67 39.06C15.56 40.54 14.04 41.31 12.22 41.32C9.04 41.34 6.51 38.86 6.52 35.61C6.51 34.42 6.9 33.26 7.63 32.32C8.76 30.84 10.27 30.09 11.27 30.06ZM9.09 35.68C9.04 37.36 10.52 38.75 12.13 38.75C12.54 38.75 12.94 38.68 13.31 38.52C13.68 38.37 14.02 38.14 14.31 37.86C14.59 37.58 14.82 37.24 14.98 36.87C15.13 36.5 15.21 36.1 15.21 35.69C15.21 35.29 15.14 34.89 14.98 34.52C14.83 34.15 14.6 33.81 14.32 33.52C14.04 33.23 13.7 33.01 13.33 32.85C12.96 32.7 12.56 32.62 12.15 32.61C10.47 32.62 9.06 34 9.1 35.68L9.09 35.68Z" fill="#000000" fill-opacity="1.000000" fill-rule="nonzero"/>
	<path id="Vector" d="M35.64 33.87C35.6 34.02 35.56 34.15 35.53 34.29C35.52 34.3 35.52 34.32 35.51 34.33C35.44 35 35.34 35.67 35.41 36.34C35.43 36.57 35.47 36.8 35.52 37.03C35.55 37.13 35.59 37.22 35.64 37.31L18.7 37.31C18.69 37.29 18.69 37.26 18.69 37.23C18.75 36.94 18.81 36.66 18.87 36.38C18.88 36.29 18.89 36.19 18.89 36.1C18.89 35.81 18.91 35.53 18.89 35.25C18.88 34.95 18.84 34.64 18.78 34.35C18.74 34.19 18.63 34.04 18.73 33.87L35.64 33.87Z" fill="#000000" fill-opacity="1.000000" fill-rule="nonzero"/>
	<path id="Vector" d="M3.02 29.82C2.44 29.82 1.89 29.85 1.34 29.81C1.11 29.78 0.9 29.69 0.72 29.56C0.48 29.41 0.29 29.19 0.17 28.94C0.08 28.78 0.02 28.6 0 28.41C-0.01 25.77 -0.01 23.12 0 20.47C0.03 20.28 0.09 20.1 0.18 19.93C0.22 19.82 0.28 19.71 0.36 19.62C0.56 19.36 0.83 19.16 1.14 19.06C1.3 19 1.47 18.98 1.63 18.98C2.09 18.98 2.55 18.98 3.02 18.98L3.02 29.82Z" fill="#000000" fill-opacity="1.000000" fill-rule="nonzero"/>
	<path id="Vector" d="M14.77 11.36L14.77 9L22.25 9L22.25 11.36L14.77 11.36Z" fill="#000000" fill-opacity="1.000000" fill-rule="nonzero"/>
	<path id="Vector" d="M8.26 11.36L8.26 9L13.67 9L13.67 11.36L8.26 11.36Z" fill="#000000" fill-opacity="1.000000" fill-rule="nonzero"/>
	<path id="Vector" d="M23.35 11.37L23.35 9L28.76 9L28.76 11.37L23.35 11.37Z" fill="#000000" fill-opacity="1.000000" fill-rule="nonzero"/>
	<path id="Vector" d="M3.05 33.86L5.67 33.86C5.37 35.01 5.31 36.15 5.66 37.31L3.05 37.31L3.05 33.86Z" fill="#000000" fill-opacity="1.000000" fill-rule="nonzero"/>
	<path id="Vector" d="M48.6 33.86L50.8 33.86L50.8 37.31L48.61 37.31L48.71 37.06C48.72 37.04 48.73 37.02 48.73 37C48.84 36.34 48.88 35.67 48.83 35C48.81 34.77 48.78 34.54 48.73 34.32C48.71 34.17 48.65 34.02 48.6 33.86Z" fill="#000000" fill-opacity="1.000000" fill-rule="nonzero"/>
	<path id="Vector" d="M49.72 26.05L49.72 28.53L47.57 28.53L47.57 26.05L49.72 26.05Z" fill="#000000" fill-opacity="1.000000" fill-rule="nonzero"/>
	<path id="Vector" d="M22.78 21.36L14.88 21.36L14.88 15.73L22.78 15.73L22.78 21.36Z" fill="#000000" fill-opacity="1.000000" fill-rule="nonzero"/>
	<path id="Vector" d="M23.89 21.36L23.89 15.71L24.07 15.71C25.87 15.71 27.66 15.71 29.45 15.71C29.63 15.71 29.69 15.8 29.74 15.95C29.83 16.16 29.94 16.37 30.03 16.58C30.07 16.67 30.12 16.76 30.16 16.85C30.24 17.05 30.3 17.26 30.4 17.45C30.49 17.65 30.59 17.82 30.69 18.01C30.78 18.19 30.85 18.39 30.94 18.58C31.03 18.77 31.14 19 31.23 19.2C31.31 19.38 31.38 19.57 31.47 19.75C31.57 19.96 31.67 20.18 31.77 20.4C31.8 20.47 31.82 20.54 31.85 20.61C31.94 20.81 32.04 21 32.12 21.19C32.13 21.24 32.13 21.3 32.13 21.35L23.89 21.36Z" fill="#000000" fill-opacity="1.000000" fill-rule="nonzero"/>
	<path id="Vector" d="M13.78 15.72L13.78 21.35L7.29 21.35L7.29 15.72L13.78 15.72Z" fill="#000000" fill-opacity="1.000000" fill-rule="nonzero"/>
	<path id="Vector" d="M42.21 33.73C42.41 33.71 42.62 33.74 42.81 33.8C43 33.87 43.18 33.97 43.33 34.1C43.56 34.29 43.76 34.52 43.89 34.78C44.02 35.05 44.1 35.34 44.1 35.64C44.15 36.76 43.16 37.65 42.15 37.66C41.09 37.68 40.12 36.74 40.15 35.71C40.16 35.31 40.21 34.93 40.45 34.62C41.15 33.73 41.54 33.73 42.21 33.73Z" fill="#000000" fill-opacity="1.000000" fill-rule="nonzero"/>
	<path id="Vector" d="M12.22 33.73C12.71 33.66 13.15 33.88 13.53 34.25C13.71 34.43 13.86 34.64 13.97 34.88C14.07 35.12 14.12 35.38 14.13 35.64C14.18 36.78 13.18 37.65 12.19 37.66C11.14 37.68 10.16 36.78 10.18 35.71C10.19 35.32 10.23 34.92 10.46 34.63C11.07 33.85 11.45 33.71 12.22 33.73Z" fill="#000000" fill-opacity="1.000000" fill-rule="nonzero"/>
</svg>
