<svg width="45.000000" height="45.000000" viewBox="0 0 45 45" fill="none" xmlns="http://www.w3.org/2000/svg" xmlns:xlink="http://www.w3.org/1999/xlink">
	<desc>
			Created with Pixso.
	</desc>
	<defs/>
	<circle id="Ellipse 8" cx="22.500000" cy="22.500000" r="22.500000" fill="#037E8C" fill-opacity="1.000000"/>
	<path id="Vector" d="M23.14 43.31C23.05 43.29 22.96 43.26 22.88 43.23C22.75 43.18 22.62 43.12 22.5 43.05C22.32 42.91 22.16 42.76 22.01 42.59C21.92 42.46 21.84 42.32 21.78 42.17C21.68 41.97 21.63 41.74 21.64 41.51C21.64 41.4 21.67 41.29 21.73 41.2C21.8 41.11 21.89 41.04 22 41.01C22.11 40.97 22.24 40.96 22.35 40.99C22.47 41.03 22.57 41.1 22.64 41.2C22.7 41.27 22.73 41.36 22.73 41.46C22.72 41.58 22.74 41.71 22.8 41.83C22.86 41.94 22.96 42.04 23.07 42.1C23.15 42.16 23.24 42.19 23.34 42.2C23.44 42.21 23.54 42.19 23.63 42.15C23.79 42.07 23.94 41.94 24.04 41.79C24.05 41.77 24.06 41.75 24.06 41.73C24.06 41.53 24.13 41.32 23.99 41.14C23.94 41.05 23.85 40.97 23.74 40.93C23.51 40.87 23.28 40.79 23.05 40.72C22.88 40.68 22.7 40.62 22.53 40.55C22.38 40.48 22.24 40.39 22.11 40.28C21.94 40.1 21.83 39.87 21.78 39.63C21.72 39.4 21.7 39.16 21.72 38.92C21.72 38.67 21.8 38.43 21.93 38.22C22.01 38.09 22.09 37.97 22.18 37.86C22.29 37.75 22.41 37.65 22.54 37.56C22.69 37.48 22.84 37.4 23 37.33C23.03 37.32 23.07 37.32 23.1 37.32C23.31 37.32 23.53 37.31 23.74 37.31C24.01 37.33 24.27 37.42 24.48 37.59C24.63 37.69 24.76 37.82 24.88 37.96C25.02 38.13 25.13 38.32 25.19 38.54C25.24 38.71 25.26 38.89 25.26 39.08C25.27 39.3 25.15 39.42 24.97 39.53C24.88 39.59 24.76 39.62 24.65 39.6C24.52 39.58 24.28 39.44 24.23 39.28C24.21 39.17 24.18 39.06 24.16 38.94C24.15 38.85 24.12 38.77 24.07 38.69C24.02 38.62 23.96 38.55 23.88 38.5C23.78 38.44 23.66 38.39 23.54 38.36C23.35 38.31 22.97 38.54 22.91 38.74C22.87 38.85 22.84 38.96 22.83 39.08C22.82 39.18 22.85 39.28 22.9 39.37C22.95 39.46 23.02 39.54 23.11 39.59C23.21 39.63 23.32 39.67 23.43 39.68L23.86 39.82C23.97 39.85 24.07 39.89 24.17 39.91C24.4 39.96 24.62 40.07 24.79 40.24C24.96 40.41 25.08 40.62 25.13 40.85C25.23 41.15 25.18 41.44 25.19 41.73C25.18 41.91 25.14 42.08 25.05 42.24C24.97 42.45 24.84 42.64 24.67 42.79C24.52 42.95 24.33 43.08 24.11 43.16C23.97 43.2 23.84 43.26 23.7 43.31L23.14 43.31Z" fill="#000000" fill-opacity="1.000000" fill-rule="nonzero"/>
	<path id="Vector" d="M23.3 9.37C23.79 9.37 24.12 9.36 24.46 9.37C24.75 9.38 25.05 9.41 25.34 9.45C25.63 9.49 25.91 9.55 26.2 9.61C26.42 9.65 26.64 9.71 26.86 9.77C27.05 9.82 27.24 9.87 27.43 9.93C27.59 9.97 27.74 10.02 27.9 10.08C28.17 10.18 28.44 10.28 28.7 10.4C28.9 10.48 29.1 10.59 29.29 10.69C29.57 10.83 29.85 10.96 30.12 11.11C30.36 11.24 30.57 11.41 30.8 11.55C30.93 11.64 31.08 11.71 31.2 11.81C31.49 12.04 31.77 12.27 32.04 12.5C32.21 12.63 32.38 12.76 32.53 12.91C32.77 13.13 32.99 13.36 33.22 13.6C33.44 13.83 33.68 14.09 33.9 14.35C34.05 14.53 34.18 14.72 34.31 14.92C34.47 15.16 34.62 15.4 34.78 15.64C34.9 15.82 35.01 16 35.11 16.19C35.27 16.49 35.42 16.81 35.58 17.11C35.65 17.25 35.73 17.37 35.79 17.51C35.83 17.6 35.85 17.7 35.89 17.79C35.95 17.97 36.01 18.15 36.08 18.33C36.11 18.41 36.15 18.5 36.18 18.59C36.22 18.72 36.25 18.85 36.29 18.98C36.33 19.11 36.38 19.25 36.43 19.38C36.43 19.39 36.43 19.39 36.43 19.4C36.46 19.56 36.49 19.72 36.52 19.88C36.56 20.09 36.61 20.29 36.65 20.49C36.65 20.51 36.66 20.53 36.66 20.54C36.69 20.73 36.73 20.92 36.74 21.11C36.82 21.89 36.85 22.67 36.82 23.46C36.8 23.74 36.77 24.02 36.74 24.31C36.72 24.5 36.69 24.69 36.66 24.89C36.64 25.03 36.62 25.18 36.58 25.33C36.55 25.47 36.5 25.63 36.45 25.77C36.45 25.79 36.45 25.8 36.45 25.81C36.42 26.01 36.37 26.21 36.3 26.4C36.23 26.61 36.19 26.82 36.12 27.03C36.05 27.22 35.97 27.39 35.9 27.58C35.86 27.67 35.84 27.78 35.81 27.87C35.78 27.95 35.75 28.02 35.71 28.09C35.59 28.35 35.47 28.61 35.33 28.86C35.2 29.11 35.06 29.36 34.92 29.61C34.82 29.78 34.72 29.96 34.61 30.12C34.51 30.28 34.4 30.41 34.29 30.56C34.16 30.73 34.05 30.91 33.91 31.07C33.75 31.28 33.57 31.47 33.39 31.66C33.1 31.97 32.81 32.28 32.5 32.58C32.33 32.75 32.14 32.9 31.95 33.06C31.76 33.22 31.58 33.37 31.38 33.52C31.22 33.64 31.05 33.75 30.88 33.86C30.62 34.02 30.35 34.18 30.09 34.33C29.94 34.42 29.78 34.49 29.63 34.58C29.45 34.67 29.28 34.78 29.1 34.86C28.96 34.93 28.8 34.98 28.66 35.05C28.57 35.09 28.48 35.14 28.39 35.18C28.32 35.21 28.24 35.24 28.17 35.27C28.06 35.3 27.96 35.32 27.85 35.36C27.75 35.39 27.62 35.45 27.5 35.49C27.42 35.52 27.35 35.54 27.27 35.56C27.11 35.6 26.95 35.64 26.8 35.68C26.65 35.72 26.49 35.77 26.34 35.81C26.33 35.82 26.32 35.82 26.31 35.82C26.15 35.85 25.98 35.88 25.82 35.9C25.5 35.95 25.19 36 24.87 36.04C24.79 36.05 24.71 36.06 24.62 36.06C24.3 36.07 23.98 36.07 23.65 36.09C23.13 36.11 22.62 36.05 22.1 36.05C21.89 36.05 21.68 36.02 21.47 35.97C21.32 35.93 21.16 35.91 21 35.89C20.84 35.86 20.69 35.8 20.52 35.76C20.41 35.73 20.29 35.71 20.17 35.68C20.02 35.65 19.87 35.62 19.73 35.58C19.53 35.52 19.34 35.44 19.14 35.38C19.03 35.34 18.91 35.31 18.8 35.27C18.7 35.23 18.59 35.18 18.49 35.14L18.29 35.06C18.13 34.99 17.98 34.94 17.83 34.87C17.67 34.8 17.56 34.72 17.43 34.65C17.27 34.57 17.1 34.5 16.94 34.41C16.75 34.31 16.56 34.2 16.38 34.09C16.15 33.94 15.92 33.78 15.7 33.62C15.54 33.5 15.38 33.37 15.22 33.25C14.98 33.06 14.72 32.87 14.49 32.67C14.29 32.5 14.11 32.31 13.92 32.12C13.72 31.91 13.52 31.7 13.33 31.48C13.13 31.26 12.98 31.06 12.82 30.84C12.59 30.53 12.38 30.21 12.17 29.9C12.04 29.71 11.91 29.53 11.8 29.34C11.71 29.17 11.63 28.98 11.54 28.81C11.47 28.68 11.4 28.56 11.33 28.43C11.29 28.35 11.27 28.27 11.23 28.18C11.21 28.12 11.18 28.07 11.15 28.01C11.09 27.86 11.02 27.7 10.96 27.54C10.91 27.42 10.88 27.3 10.83 27.18C10.78 27.06 10.74 26.96 10.7 26.85C10.66 26.76 10.63 26.67 10.61 26.57C10.58 26.44 10.56 26.29 10.52 26.16C10.48 26 10.42 25.85 10.38 25.7C10.35 25.59 10.33 25.48 10.31 25.36C10.27 25.13 10.23 24.9 10.21 24.67C10.17 24.34 10.17 24.01 10.11 23.69C10 23.1 10.08 22.51 10.06 21.93C10.16 21.67 10.11 21.39 10.14 21.12C10.16 20.94 10.18 20.76 10.21 20.58C10.26 20.3 10.32 20.03 10.38 19.75C10.43 19.54 10.48 19.34 10.53 19.13C10.58 18.96 10.63 18.79 10.69 18.62C10.78 18.36 10.88 18.12 10.98 17.86C11.04 17.7 11.09 17.53 11.17 17.38C11.25 17.18 11.35 17 11.45 16.81C11.51 16.68 11.56 16.54 11.63 16.41C11.72 16.25 11.83 16.1 11.92 15.95C12.03 15.76 12.14 15.57 12.26 15.39C12.41 15.14 12.57 14.9 12.74 14.67C12.92 14.44 13.13 14.22 13.33 13.99C13.55 13.74 13.75 13.47 14 13.25C14.26 12.98 14.54 12.73 14.84 12.51C15.05 12.36 15.23 12.15 15.43 11.99C15.56 11.89 15.7 11.82 15.84 11.73C16.02 11.61 16.19 11.47 16.37 11.35C16.53 11.25 16.7 11.18 16.86 11.1C17.03 11.01 17.16 10.91 17.32 10.83C17.48 10.75 17.62 10.7 17.76 10.62C17.91 10.55 18.04 10.48 18.18 10.41C18.24 10.38 18.31 10.36 18.38 10.34C18.55 10.27 18.73 10.21 18.9 10.15C19.01 10.11 19.11 10.06 19.22 10.02C19.3 9.98 19.39 9.95 19.49 9.93C19.62 9.89 19.75 9.87 19.88 9.84C20.14 9.77 20.41 9.69 20.66 9.62C20.68 9.61 20.69 9.61 20.7 9.61C20.92 9.59 21.14 9.56 21.35 9.51C21.58 9.45 21.81 9.48 22.03 9.43C22.51 9.31 22.98 9.41 23.3 9.37ZM23.46 34.95L23.46 34.96C23.77 34.96 24.08 34.96 24.39 34.96C24.51 34.96 24.63 34.95 24.74 34.94C25 34.9 25.27 34.85 25.53 34.8C25.74 34.77 25.94 34.74 26.14 34.72L26.18 34.71C26.34 34.66 26.5 34.61 26.66 34.57C26.79 34.54 26.92 34.51 27.05 34.47C27.13 34.45 27.21 34.43 27.29 34.4C27.48 34.33 27.67 34.25 27.86 34.17C28.01 34.11 28.17 34.06 28.32 34.01C28.39 33.98 28.46 33.95 28.53 33.92C28.68 33.85 28.83 33.77 28.97 33.69C29.1 33.62 29.23 33.56 29.35 33.49C29.45 33.43 29.53 33.37 29.62 33.32C29.79 33.22 29.97 33.14 30.13 33.04C30.34 32.9 30.54 32.75 30.74 32.6C30.9 32.48 31.07 32.36 31.23 32.23C31.36 32.13 31.49 32.01 31.61 31.9C31.8 31.73 32 31.57 32.18 31.38C32.38 31.17 32.55 30.93 32.76 30.72C32.96 30.51 33.14 30.28 33.31 30.04C33.46 29.8 33.64 29.58 33.8 29.34C33.92 29.16 34.04 28.97 34.15 28.78C34.22 28.65 34.28 28.51 34.35 28.38C34.47 28.14 34.59 27.91 34.7 27.67C34.77 27.52 34.82 27.36 34.88 27.2C34.98 26.95 35.08 26.71 35.17 26.46C35.23 26.29 35.28 26.1 35.33 25.92C35.38 25.71 35.44 25.49 35.48 25.28C35.54 24.96 35.6 24.65 35.65 24.34C35.68 24.1 35.71 23.85 35.72 23.61C35.76 22.76 35.73 21.91 35.65 21.06C35.65 21.04 35.64 21.02 35.63 21C35.59 20.78 35.55 20.56 35.5 20.34C35.47 20.16 35.44 19.97 35.4 19.79C35.4 19.78 35.39 19.77 35.38 19.76C35.34 19.63 35.29 19.51 35.26 19.38C35.23 19.25 35.2 19.1 35.17 18.96C35.17 18.95 35.17 18.94 35.16 18.92C35.12 18.82 35.07 18.72 35.03 18.62C34.96 18.44 34.91 18.26 34.84 18.08C34.77 17.91 34.7 17.75 34.62 17.59C34.59 17.51 34.56 17.44 34.53 17.37C34.38 17.1 34.23 16.84 34.08 16.58C33.97 16.39 33.87 16.19 33.75 16C33.62 15.81 33.49 15.66 33.37 15.49C33.23 15.29 33.09 15.09 32.94 14.91C32.77 14.7 32.57 14.5 32.39 14.3C32.2 14.1 32.02 13.93 31.82 13.75C31.54 13.48 31.25 13.23 30.94 12.99C30.65 12.78 30.36 12.57 30.06 12.38C29.82 12.22 29.57 12.09 29.33 11.96C29.27 11.92 29.21 11.89 29.15 11.86C29.01 11.79 28.88 11.72 28.75 11.65C28.62 11.58 28.46 11.51 28.32 11.44C28.23 11.4 28.15 11.37 28.06 11.34C27.95 11.3 27.85 11.28 27.75 11.24C27.57 11.17 27.4 11.09 27.23 11.03C26.95 10.94 26.68 10.86 26.4 10.79C26.16 10.73 25.92 10.69 25.67 10.64C25.52 10.61 25.36 10.58 25.2 10.56C24.98 10.53 24.76 10.49 24.54 10.49C23.6 10.44 22.65 10.46 21.72 10.56L21.68 10.56C21.49 10.6 21.29 10.65 21.1 10.69C20.9 10.73 20.72 10.76 20.53 10.79L20.5 10.79C20.28 10.86 20.06 10.93 19.83 11C19.74 11.03 19.66 11.06 19.57 11.09C19.38 11.15 19.2 11.2 19.01 11.26C18.94 11.28 18.88 11.31 18.81 11.34C18.66 11.41 18.5 11.49 18.35 11.56C18.21 11.62 18.08 11.68 17.94 11.74C17.76 11.84 17.57 11.94 17.39 12.04C17.29 12.1 17.18 12.16 17.08 12.22C16.93 12.32 16.78 12.41 16.64 12.51C16.47 12.63 16.3 12.74 16.13 12.86C15.95 13 15.78 13.15 15.6 13.29C15.48 13.38 15.37 13.47 15.27 13.56C15.03 13.79 14.81 14.01 14.58 14.24C14.43 14.4 14.29 14.56 14.15 14.72C14.01 14.88 13.88 15.06 13.74 15.23C13.61 15.41 13.49 15.56 13.36 15.73C13.26 15.87 13.15 16.02 13.06 16.17C12.9 16.42 12.74 16.69 12.59 16.95C12.53 17.08 12.47 17.21 12.42 17.35C12.39 17.42 12.35 17.48 12.32 17.55C12.25 17.7 12.17 17.85 12.11 18C12.05 18.15 12 18.33 11.94 18.49C11.9 18.6 11.84 18.7 11.8 18.81C11.77 18.93 11.75 19.07 11.71 19.19C11.64 19.43 11.55 19.67 11.49 19.91C11.43 20.15 11.38 20.42 11.33 20.68C11.3 20.85 11.3 21.02 11.27 21.19C11.22 21.49 11.2 21.78 11.19 22.07C11.14 22.56 11.15 23.05 11.23 23.53C11.29 23.87 11.25 24.23 11.32 24.57C11.36 24.77 11.38 24.98 11.42 25.18C11.44 25.29 11.46 25.38 11.48 25.48C11.53 25.63 11.57 25.77 11.62 25.92C11.65 26.04 11.69 26.16 11.72 26.29C11.76 26.41 11.78 26.52 11.81 26.64C11.84 26.72 11.87 26.81 11.9 26.89C11.94 26.98 11.99 27.06 12.03 27.15C12.09 27.32 12.15 27.5 12.22 27.66C12.31 27.87 12.42 28.08 12.52 28.29C12.54 28.36 12.57 28.41 12.6 28.47C12.67 28.59 12.75 28.7 12.82 28.81C12.93 29.01 13.04 29.22 13.16 29.41C13.3 29.62 13.46 29.83 13.61 30.03C13.77 30.23 13.92 30.43 14.08 30.62C14.2 30.76 14.33 30.89 14.46 31.03C14.69 31.26 14.92 31.5 15.16 31.73C15.31 31.88 15.48 32.01 15.64 32.15C15.93 32.37 16.21 32.6 16.51 32.82C16.68 32.95 16.87 33.05 17.06 33.16C17.22 33.26 17.38 33.36 17.55 33.45C17.71 33.55 17.88 33.65 18.06 33.74C18.19 33.81 18.33 33.86 18.46 33.92C18.55 33.96 18.64 33.98 18.72 34.01C18.89 34.09 19.05 34.17 19.23 34.23C19.41 34.3 19.61 34.35 19.8 34.41C20.02 34.48 20.23 34.56 20.45 34.62C20.57 34.65 20.7 34.65 20.82 34.69C21.08 34.77 21.35 34.82 21.62 34.85C21.85 34.89 22.09 34.92 22.32 34.93C22.69 34.96 23.08 34.95 23.46 34.95Z" fill="#000000" fill-opacity="1.000000" fill-rule="nonzero"/>
	<path id="Vector" d="M4.7 22.77L4.86 22.32C4.91 22.2 4.96 22.07 5 21.95C5.03 21.86 5.06 21.78 5.09 21.69C5.12 21.58 5.14 21.47 5.18 21.36C5.21 21.25 5.25 21.14 5.29 21.04C5.34 20.91 5.38 20.78 5.42 20.65C5.47 20.32 5.82 20.07 6.14 20.17C6.21 20.18 6.27 20.21 6.32 20.25C6.37 20.29 6.41 20.34 6.44 20.41C6.49 20.56 6.55 20.71 6.6 20.86C6.66 21.04 6.71 21.21 6.76 21.39C6.81 21.54 6.86 21.69 6.91 21.84C6.95 21.95 6.99 22.07 7.03 22.18C7.07 22.29 7.11 22.4 7.14 22.51C7.17 22.61 7.22 22.72 7.27 22.82C7.3 22.72 7.33 22.64 7.36 22.54C7.4 22.4 7.43 22.25 7.46 22.11C7.5 21.96 7.55 21.84 7.6 21.7C7.63 21.6 7.65 21.5 7.68 21.4C7.71 21.28 7.74 21.16 7.77 21.05C7.82 20.89 7.88 20.73 7.91 20.56C7.93 20.49 7.96 20.42 8 20.36C8.04 20.31 8.1 20.26 8.16 20.22C8.2 20.19 8.24 20.17 8.29 20.16C8.37 20.15 8.46 20.15 8.54 20.15C8.64 20.16 8.73 20.2 8.8 20.26C8.88 20.32 8.93 20.4 8.96 20.49C9.05 20.7 8.94 20.87 8.9 21.06C8.89 21.09 8.88 21.11 8.88 21.14C8.83 21.29 8.78 21.45 8.73 21.6C8.73 21.62 8.73 21.64 8.72 21.65C8.67 21.82 8.62 21.99 8.58 22.15C8.54 22.28 8.51 22.42 8.47 22.55C8.43 22.68 8.38 22.83 8.34 22.97C8.31 23.06 8.28 23.16 8.25 23.26C8.22 23.39 8.2 23.53 8.16 23.66C8.12 23.79 8.07 23.91 8.03 24.04C8 24.15 7.97 24.25 7.94 24.35C7.91 24.49 7.88 24.63 7.84 24.76C7.79 24.9 7.74 25.04 7.67 25.16C7.61 25.27 7.3 25.32 7.18 25.3C6.99 25.28 6.88 25.15 6.78 25.01C6.74 24.93 6.71 24.85 6.69 24.77C6.63 24.56 6.58 24.35 6.51 24.14C6.47 24.01 6.42 23.89 6.37 23.76C6.34 23.68 6.31 23.6 6.29 23.51C6.25 23.39 6.23 23.27 6.2 23.15C6.17 23.03 6.12 22.93 6.08 22.81C6.06 22.74 6.04 22.67 6.02 22.57C5.97 22.62 5.92 22.64 5.91 22.68C5.87 22.8 5.84 22.92 5.81 23.04C5.77 23.15 5.71 23.27 5.67 23.38C5.64 23.46 5.62 23.53 5.59 23.61C5.56 23.71 5.54 23.81 5.5 23.91C5.46 24.03 5.42 24.15 5.37 24.28C5.34 24.36 5.31 24.45 5.29 24.53C5.25 24.65 5.21 24.78 5.18 24.9C5.11 25.13 4.91 25.35 4.66 25.33C4.57 25.32 4.49 25.29 4.42 25.25C4.35 25.2 4.28 25.15 4.24 25.08C4.1 24.9 4.05 24.69 4 24.48C3.96 24.33 3.91 24.19 3.87 24.04C3.87 24.02 3.85 24.01 3.85 23.99C3.82 23.84 3.8 23.69 3.76 23.54C3.69 23.32 3.61 23.1 3.55 22.87C3.51 22.74 3.48 22.59 3.44 22.45C3.4 22.31 3.35 22.15 3.3 22C3.27 21.9 3.25 21.8 3.22 21.7C3.19 21.56 3.16 21.42 3.13 21.28C3.09 21.14 3.02 20.99 3 20.83C2.99 20.74 3 20.64 3.03 20.54C3.04 20.49 3.06 20.43 3.09 20.39C3.12 20.34 3.16 20.3 3.21 20.27C3.36 20.16 3.54 20.09 3.7 20.16C3.8 20.2 3.88 20.26 3.95 20.33C4.02 20.41 4.06 20.51 4.08 20.61C4.11 20.76 4.16 20.91 4.21 21.05C4.21 21.07 4.22 21.08 4.23 21.1C4.26 21.25 4.28 21.4 4.32 21.55C4.35 21.68 4.41 21.8 4.45 21.92C4.49 22.05 4.51 22.16 4.54 22.28C4.58 22.44 4.61 22.6 4.64 22.75L4.7 22.77Z" fill="#000000" fill-opacity="1.000000" fill-rule="nonzero"/>
	<path id="Vector" d="M39.13 21.35L39.13 22.12L39.26 22.12C39.92 22.12 40.58 22.12 41.24 22.12C41.53 22.12 41.83 22.45 41.79 22.73C41.77 22.9 41.58 23.09 41.44 23.16C41.26 23.25 41.08 23.22 40.89 23.22C40.35 23.23 39.81 23.22 39.27 23.22L39.12 23.22L39.12 24.09L41.45 24.09C41.72 24.09 41.9 24.24 41.97 24.51C42.05 24.77 41.94 24.94 41.78 25.1C41.71 25.16 41.62 25.19 41.53 25.19C40.51 25.2 39.49 25.19 38.48 25.19C38.33 25.19 38.01 24.93 38.02 24.75C38.02 24.69 38.01 24.62 38.01 24.55C38.01 23.33 38.01 22.11 38.01 20.88C37.99 20.75 38.02 20.62 38.09 20.51C38.14 20.43 38.21 20.37 38.29 20.32C38.38 20.27 38.47 20.25 38.56 20.24C39.49 20.24 40.42 20.23 41.36 20.24C41.46 20.24 41.57 20.27 41.66 20.33C41.75 20.4 41.82 20.48 41.86 20.58C41.9 20.67 41.92 20.78 41.9 20.88C41.89 20.98 41.85 21.07 41.79 21.15C41.75 21.21 41.7 21.26 41.63 21.29C41.57 21.33 41.5 21.35 41.43 21.35C40.72 21.34 40.01 21.35 39.3 21.35L39.13 21.35Z" fill="#000000" fill-opacity="1.000000" fill-rule="nonzero"/>
	<path id="Vector" d="M24.3 5.75C24.31 5.7 24.31 5.65 24.31 5.6C24.31 4.91 24.32 4.23 24.31 3.54C24.32 3.44 24.35 3.34 24.41 3.25C24.47 3.17 24.55 3.1 24.64 3.06C24.71 3.03 24.77 3.01 24.85 3C24.92 2.99 25 3 25.07 3.03C25.14 3.06 25.2 3.1 25.25 3.15C25.31 3.2 25.35 3.27 25.38 3.34C25.4 3.41 25.42 3.48 25.41 3.56C25.41 4.87 25.41 6.18 25.41 7.49C25.41 7.59 25.39 7.69 25.35 7.78C25.3 7.87 25.24 7.95 25.16 8.01C25.03 8.13 24.86 8.1 24.69 8.05C24.48 8 24.42 7.82 24.31 7.69C24.13 7.46 23.95 7.22 23.78 6.98C23.63 6.77 23.5 6.55 23.35 6.33C23.22 6.15 23.07 5.98 22.94 5.8C22.83 5.65 22.71 5.5 22.59 5.36C22.59 5.41 22.58 5.47 22.58 5.52C22.58 6.2 22.58 6.87 22.58 7.55C22.58 7.66 22.54 7.76 22.48 7.85C22.42 7.94 22.33 8 22.23 8.04C22.15 8.08 22.07 8.1 21.99 8.1C21.89 8.08 21.8 8.04 21.72 7.97C21.64 7.91 21.58 7.83 21.54 7.73C21.49 7.56 21.47 7.37 21.48 7.19C21.48 6.02 21.48 4.86 21.48 3.69C21.48 3.59 21.5 3.49 21.54 3.4C21.58 3.31 21.64 3.23 21.72 3.16C21.88 3.02 22.19 3.05 22.35 3.19C22.58 3.39 22.71 3.65 22.9 3.88C23.02 4.03 23.14 4.19 23.26 4.35C23.41 4.56 23.55 4.79 23.7 5C23.8 5.15 23.93 5.29 24.04 5.44C24.12 5.55 24.18 5.65 24.26 5.76L24.3 5.75Z" fill="#000000" fill-opacity="1.000000" fill-rule="nonzero"/>
	<path id="Vector" d="M26.15 20.07C26.38 20.12 26.62 20.18 26.86 20.24C27.16 20.32 27.45 20.4 27.74 20.48L28.35 20.64L28.93 20.79L29.52 20.95C29.72 21 29.91 21.06 30.11 21.11L30.71 21.27L31.28 21.42C31.48 21.47 31.68 21.52 31.88 21.58C32.11 21.65 32.35 21.73 32.58 21.8C32.72 21.84 32.86 21.86 33 21.89C33.14 21.93 33.27 21.98 33.4 22.02C33.41 22.02 33.42 22.03 33.44 22.03C33.59 22.06 33.74 22.09 33.89 22.13C34.08 22.19 34.3 22.21 34.41 22.43C34.52 22.65 34.51 22.99 34.29 23.15C34.16 23.23 34.02 23.28 33.87 23.31C33.72 23.34 33.58 23.39 33.43 23.43C33.42 23.43 33.4 23.45 33.39 23.45C33.14 23.51 32.88 23.57 32.63 23.63C32.42 23.68 32.21 23.72 32.01 23.79C31.83 23.86 31.64 23.91 31.44 23.94C31.24 23.98 31.05 24.03 30.86 24.1C30.62 24.17 30.4 24.25 30.17 24.32C30.02 24.36 29.88 24.38 29.73 24.41C29.59 24.45 29.45 24.5 29.31 24.54C29.3 24.55 29.29 24.55 29.28 24.55C29.13 24.59 28.98 24.61 28.84 24.65C28.69 24.69 28.55 24.74 28.41 24.78C28.31 24.81 28.21 24.83 28.12 24.86C27.97 24.89 27.81 24.93 27.66 24.96C27.51 25 27.38 25.05 27.23 25.1C27.22 25.1 27.22 25.11 27.21 25.11C27.07 25.14 26.92 25.16 26.78 25.19C26.67 25.21 26.56 25.24 26.45 25.29C26.41 25.3 26.39 25.37 26.37 25.42C26.32 25.56 26.28 25.7 26.23 25.85C26.23 25.86 26.23 25.88 26.22 25.9C26.16 26.15 26.1 26.4 26.04 26.65C25.99 26.85 25.94 27.05 25.88 27.26C25.83 27.46 25.79 27.64 25.73 27.83C25.66 28.06 25.58 28.29 25.52 28.52C25.48 28.65 25.46 28.79 25.42 28.92C25.38 29.08 25.33 29.24 25.28 29.39C25.28 29.41 25.27 29.42 25.27 29.44L25.12 29.97C25.12 29.99 25.12 30 25.11 30.01C25.06 30.19 25.02 30.38 24.97 30.56C24.93 30.68 24.91 30.81 24.87 30.93C24.83 31.1 24.77 31.27 24.73 31.45C24.7 31.55 24.67 31.65 24.65 31.74C24.62 31.88 24.59 32.02 24.55 32.16C24.51 32.31 24.46 32.46 24.41 32.61C24.38 32.71 24.36 32.81 24.33 32.91C24.3 33.04 24.27 33.17 24.24 33.31C24.23 33.39 24.19 33.47 24.15 33.54C24.1 33.61 24.04 33.67 23.97 33.72C23.9 33.76 23.82 33.78 23.74 33.79C23.66 33.8 23.58 33.79 23.51 33.76C23.44 33.75 23.37 33.72 23.32 33.67C23.27 33.63 23.23 33.57 23.21 33.5C23.17 33.3 23.11 33.11 23.05 32.91C22.98 32.68 22.9 32.45 22.83 32.21C22.79 32.07 22.78 31.92 22.74 31.78C22.7 31.63 22.65 31.51 22.61 31.38C22.6 31.36 22.6 31.35 22.59 31.33C22.56 31.18 22.54 31.02 22.5 30.88C22.44 30.64 22.36 30.42 22.29 30.18C22.25 30.03 22.22 29.87 22.18 29.72C22.14 29.58 22.1 29.45 22.05 29.32C22.05 29.31 22.04 29.3 22.04 29.29C22.01 29.13 21.98 28.98 21.95 28.82C21.93 28.72 21.89 28.61 21.86 28.5C21.81 28.32 21.76 28.13 21.71 27.95C21.66 27.81 21.61 27.67 21.57 27.52C21.54 27.43 21.52 27.34 21.5 27.25C21.47 27.1 21.44 26.96 21.4 26.81C21.35 26.67 21.3 26.52 21.26 26.37C21.23 26.27 21.21 26.18 21.18 26.08C21.15 25.95 21.11 25.81 21.09 25.68C21.08 25.63 21.06 25.59 21.03 25.56C21 25.52 20.96 25.5 20.91 25.5C20.76 25.47 20.62 25.41 20.48 25.37C20.37 25.34 20.27 25.31 20.17 25.28C20.03 25.25 19.88 25.22 19.74 25.18C19.6 25.14 19.48 25.09 19.35 25.05C19.26 25.02 19.17 25 19.08 24.97C18.94 24.94 18.8 24.91 18.67 24.87C18.54 24.83 18.38 24.77 18.23 24.73C18.14 24.7 18.05 24.68 17.95 24.66C17.81 24.62 17.67 24.59 17.53 24.55C17.4 24.51 17.26 24.46 17.12 24.42C17.02 24.39 16.91 24.36 16.82 24.33C16.67 24.3 16.53 24.27 16.39 24.23C16.24 24.18 16.12 24.14 15.99 24.1C15.88 24.06 15.77 24.04 15.66 24.01C15.49 23.96 15.32 23.9 15.15 23.86C15.01 23.82 14.87 23.8 14.73 23.76C14.59 23.73 14.45 23.67 14.31 23.63C14.22 23.6 14.13 23.57 14.04 23.55C13.89 23.51 13.74 23.48 13.59 23.45C13.44 23.41 13.32 23.35 13.19 23.31C13.15 23.3 13.12 23.3 13.09 23.3C12.89 23.27 12.7 23.19 12.54 23.06C12.41 22.94 12.39 22.59 12.47 22.44C12.6 22.22 12.79 22.13 13.04 22.11C13.19 22.08 13.34 22.03 13.49 21.98C13.5 21.97 13.51 21.97 13.53 21.97C13.7 21.94 13.88 21.91 14.05 21.87C14.2 21.84 14.36 21.79 14.51 21.75C14.54 21.74 14.57 21.73 14.6 21.73C14.81 21.68 15.02 21.62 15.23 21.58C15.38 21.54 15.54 21.52 15.69 21.48C15.87 21.44 16.04 21.39 16.22 21.34L16.24 21.34C16.41 21.31 16.58 21.28 16.75 21.25C16.91 21.21 17.08 21.15 17.24 21.11C17.35 21.08 17.46 21.06 17.57 21.04C17.74 21 17.91 20.97 18.08 20.93C18.25 20.89 18.41 20.84 18.58 20.79L18.61 20.79C18.78 20.76 18.96 20.74 19.13 20.7C19.28 20.67 19.43 20.62 19.58 20.58C19.59 20.58 19.6 20.57 19.61 20.56C19.78 20.53 19.94 20.5 20.11 20.46C20.3 20.42 20.49 20.36 20.68 20.31C20.7 20.3 20.71 20.28 20.72 20.27C20.74 20.25 20.74 20.24 20.75 20.22C20.78 20.13 20.81 20.03 20.83 19.94C20.86 19.8 20.88 19.65 20.92 19.51C20.95 19.38 20.99 19.26 21.02 19.14C21.07 18.96 21.11 18.79 21.16 18.61C21.2 18.48 21.25 18.35 21.29 18.22C21.29 18.21 21.3 18.2 21.31 18.19C21.34 18.03 21.36 17.87 21.4 17.72C21.42 17.61 21.46 17.49 21.49 17.38C21.54 17.21 21.58 17.03 21.64 16.85C21.68 16.71 21.73 16.56 21.78 16.42C21.81 16.32 21.83 16.22 21.85 16.12C21.89 15.98 21.91 15.84 21.95 15.7C21.99 15.56 22.04 15.41 22.08 15.26C22.11 15.17 22.14 15.07 22.16 14.98C22.2 14.83 22.22 14.68 22.26 14.54C22.3 14.39 22.36 14.23 22.4 14.08C22.43 13.98 22.45 13.89 22.47 13.79C22.51 13.65 22.54 13.5 22.58 13.36C22.62 13.21 22.66 13.08 22.7 12.94C22.7 12.93 22.72 12.91 22.72 12.9C22.75 12.75 22.77 12.6 22.81 12.45C22.86 12.27 22.91 12.1 22.98 11.93C23.08 11.67 23.44 11.59 23.7 11.72C23.9 11.81 23.96 11.96 24 12.15C24.03 12.28 24.09 12.42 24.13 12.55C24.16 12.65 24.18 12.74 24.21 12.84C24.24 12.99 24.27 13.14 24.31 13.28C24.35 13.43 24.4 13.57 24.45 13.71C24.45 13.72 24.46 13.73 24.46 13.75C24.49 13.9 24.51 14.05 24.55 14.2C24.61 14.44 24.7 14.67 24.76 14.9C24.79 15.03 24.82 15.16 24.85 15.29C24.89 15.45 24.95 15.6 24.99 15.76C25.03 15.89 25.05 16.03 25.09 16.16C25.13 16.32 25.18 16.48 25.23 16.64C25.26 16.75 25.29 16.86 25.31 16.97C25.35 17.12 25.38 17.27 25.42 17.42C25.46 17.56 25.51 17.69 25.55 17.82C25.58 17.91 25.6 18.01 25.62 18.1C25.65 18.24 25.68 18.39 25.73 18.53C25.77 18.68 25.82 18.84 25.86 18.99C25.89 19.08 25.91 19.17 25.94 19.26C25.97 19.41 26 19.55 26.04 19.69C26.08 19.81 26.12 19.94 26.15 20.07Z" fill="#000000" fill-opacity="1.000000" fill-rule="nonzero"/>
	<path id="Vector" d="M17.51 16.3C17.72 16.26 17.86 16.4 18.01 16.48C18.17 16.56 18.32 16.67 18.47 16.76C18.59 16.84 18.71 16.91 18.83 16.98C18.98 17.07 19.14 17.15 19.3 17.24C19.45 17.34 19.61 17.45 19.78 17.54C19.89 17.61 20.01 17.65 20.12 17.72C20.14 17.73 20.17 17.76 20.18 17.78C20.2 17.81 20.21 17.84 20.22 17.87C20.22 17.9 20.22 17.93 20.22 17.96C20.21 17.99 20.2 18.02 20.18 18.04C20.16 18.06 20.15 18.08 20.15 18.09C20.12 18.25 20.09 18.41 20.06 18.56C20.03 18.67 20 18.79 19.97 18.9C19.92 19.04 19.87 19.18 19.83 19.33C19.82 19.36 19.81 19.39 19.78 19.42C19.75 19.44 19.72 19.45 19.69 19.45C19.5 19.48 19.32 19.55 19.13 19.58C18.95 19.63 18.75 19.66 18.56 19.68C18.52 19.68 18.46 19.62 18.43 19.57C18.36 19.45 18.31 19.33 18.24 19.21C18.17 19.09 18.1 19 18.04 18.88C17.94 18.72 17.86 18.55 17.77 18.39C17.68 18.23 17.58 18.08 17.49 17.93C17.41 17.79 17.34 17.64 17.26 17.51C17.18 17.37 17.07 17.22 17 17.07C16.98 16.98 16.97 16.89 16.98 16.81C16.96 16.71 16.98 16.61 17.03 16.53C17.08 16.45 17.16 16.39 17.25 16.36L17.51 16.27L17.51 16.3Z" fill="#000000" fill-opacity="1.000000" fill-rule="nonzero"/>
	<path id="Vector" d="M16.99 28.59C16.94 28.39 17.08 28.26 17.16 28.11C17.26 27.94 17.36 27.77 17.48 27.6C17.59 27.43 17.72 27.24 17.84 27.06C17.93 26.91 18.01 26.75 18.11 26.59C18.19 26.46 18.27 26.33 18.36 26.2C18.4 26.15 18.44 26.09 18.48 26.03C18.52 25.94 18.58 25.98 18.64 25.99C18.78 26.04 18.92 26.09 19.07 26.13C19.29 26.2 19.51 26.25 19.73 26.31C19.86 26.35 19.98 26.39 20.1 26.45C20.15 26.48 20.18 26.52 20.2 26.58C20.24 26.71 20.26 26.85 20.29 26.99C20.32 27.13 20.36 27.27 20.41 27.4C20.47 27.55 20.46 27.57 20.32 27.64C20.12 27.75 19.93 27.88 19.73 27.99C19.6 28.07 19.47 28.12 19.34 28.2C19.21 28.27 19.12 28.34 19.01 28.41C18.85 28.5 18.69 28.57 18.53 28.66C18.31 28.78 18.1 28.91 17.88 29.04C17.79 29.1 17.7 29.13 17.59 29.14C17.49 29.16 17.38 29.14 17.29 29.11C17.08 29.02 16.93 28.85 16.99 28.59Z" fill="#000000" fill-opacity="1.000000" fill-rule="nonzero"/>
	<path id="Vector" d="M28.37 19.53L27.93 19.39C27.9 19.38 27.88 19.38 27.86 19.37C27.68 19.32 27.5 19.28 27.33 19.23C27.29 19.22 27.25 19.21 27.21 19.21C27.08 19.19 27.02 19.12 27 19C26.96 18.83 26.91 18.66 26.86 18.49C26.83 18.35 26.79 18.22 26.76 18.08C26.74 18.01 26.72 17.94 26.7 17.87C26.69 17.85 26.68 17.83 26.68 17.81C26.68 17.79 26.69 17.77 26.69 17.75C26.7 17.73 26.71 17.71 26.73 17.7C26.74 17.68 26.76 17.67 26.78 17.66C26.93 17.57 27.1 17.49 27.26 17.41C27.42 17.32 27.55 17.23 27.7 17.14C27.82 17.07 27.94 17.01 28.05 16.94C28.26 16.82 28.46 16.7 28.67 16.58C28.8 16.51 28.94 16.46 29.07 16.37C29.1 16.34 29.15 16.32 29.19 16.31C29.24 16.3 29.28 16.3 29.33 16.31C29.42 16.32 29.51 16.36 29.58 16.41C29.65 16.46 29.71 16.53 29.75 16.61C29.78 16.67 29.81 16.74 29.83 16.8C29.87 17.01 29.73 17.17 29.64 17.33C29.61 17.39 29.56 17.45 29.52 17.51C29.38 17.76 29.24 18.02 29.09 18.28C29.02 18.41 28.95 18.54 28.88 18.68C28.79 18.83 28.7 18.98 28.61 19.13C28.53 19.25 28.46 19.38 28.37 19.53Z" fill="#000000" fill-opacity="1.000000" fill-rule="nonzero"/>
	<path id="Vector" d="M29.4 29.06C29.26 29.06 29.13 29.01 29.02 28.92C28.87 28.81 28.7 28.75 28.54 28.65C28.37 28.56 28.24 28.46 28.08 28.37C28.03 28.34 27.97 28.31 27.91 28.28C27.73 28.18 27.56 28.08 27.38 27.98C27.27 27.92 27.15 27.85 27.03 27.79C27 27.78 26.98 27.76 26.96 27.73C26.94 27.71 26.92 27.68 26.92 27.65C26.91 27.62 26.91 27.59 26.91 27.56C26.91 27.53 26.92 27.5 26.94 27.47C26.95 27.45 26.98 27.43 26.98 27.41C27.01 27.26 27.03 27.11 27.07 26.96C27.1 26.83 27.14 26.71 27.17 26.58C27.19 26.53 27.21 26.48 27.22 26.43C27.22 26.36 27.26 26.29 27.3 26.24C27.35 26.19 27.42 26.15 27.49 26.14C27.67 26.11 27.83 26.05 28 26C28.12 25.97 28.25 25.95 28.37 25.91C28.54 25.85 28.58 25.99 28.64 26.09C28.75 26.29 28.85 26.49 28.96 26.68C29.08 26.87 29.22 27.07 29.34 27.28C29.43 27.43 29.5 27.61 29.59 27.77C29.68 27.93 29.77 28.05 29.85 28.2C30.03 28.49 29.98 28.78 29.69 28.98C29.6 29.02 29.51 29.06 29.42 29.09L29.4 29.06Z" fill="#000000" fill-opacity="1.000000" fill-rule="nonzero"/>
</svg>
