<svg width="41.000000" height="41.000000" viewBox="0 0 41 41" fill="none" xmlns="http://www.w3.org/2000/svg" xmlns:xlink="http://www.w3.org/1999/xlink">
	<desc>
			Created with Pixso.
	</desc>
	<defs>
		<clipPath id="clip28_51">
			<rect id="ant-design:whats-app-outlined" rx="0.000000" width="33.593750" height="33.593750" transform="translate(4.343750 3.062500)" fill="white" fill-opacity="0"/>
		</clipPath>
	</defs>
	<circle id="Ellipse 25" cx="20.500000" cy="20.500000" r="20.500000" fill="#121214" fill-opacity="1.000000"/>
	<rect id="ant-design:whats-app-outlined" rx="0.000000" width="33.593750" height="33.593750" transform="translate(4.343750 3.062500)" fill="#FFFFFF" fill-opacity="0"/>
	<g clip-path="url(#clip28_51)">
		<path id="Vector" d="M27.94 22.82C27.57 22.63 25.74 21.74 25.4 21.61C25.06 21.49 24.81 21.42 24.56 21.8C24.31 22.18 23.6 23.01 23.38 23.27C23.16 23.52 22.94 23.55 22.57 23.36C20.39 22.27 18.95 21.41 17.51 18.93C17.13 18.27 17.89 18.32 18.6 16.9C18.72 16.65 18.66 16.44 18.57 16.25C18.47 16.06 17.73 14.23 17.42 13.48C17.12 12.75 16.81 12.85 16.58 12.84C16.37 12.83 16.12 12.83 15.87 12.83C15.62 12.83 15.22 12.92 14.88 13.29C14.53 13.66 13.57 14.57 13.57 16.4C13.57 18.23 14.91 20 15.09 20.25C15.28 20.5 17.71 24.26 21.45 25.88C23.82 26.9 24.74 26.99 25.93 26.81C26.65 26.7 28.13 25.91 28.44 25.04C28.74 24.16 28.74 23.42 28.65 23.26C28.56 23.1 28.31 23 27.94 22.82Z" fill="#FFFFFF" fill-opacity="1.000000" fill-rule="nonzero"/>
		<path id="Vector" d="M35.09 13.99C34.33 12.18 33.24 10.55 31.84 9.15C30.45 7.75 28.82 6.66 27 5.9C25.14 5.12 23.17 4.72 21.14 4.72L21.07 4.72C19.02 4.73 17.04 5.14 15.17 5.93C13.37 6.7 11.76 7.8 10.38 9.19C8.99 10.59 7.91 12.21 7.16 14.02C6.38 15.89 5.99 17.88 6 19.93C6.01 22.27 6.57 24.6 7.62 26.68L7.62 31.81C7.62 32.67 8.32 33.37 9.18 33.37L14.31 33.37C16.4 34.42 18.72 34.98 21.07 34.99L21.14 34.99C23.16 34.99 25.13 34.6 26.97 33.83C28.78 33.08 30.41 32 31.8 30.61C33.19 29.23 34.29 27.62 35.06 25.82C35.85 23.95 36.26 21.97 36.27 19.92C36.28 17.86 35.88 15.87 35.09 13.99ZM29.99 28.79C27.62 31.13 24.48 32.42 21.14 32.42L21.08 32.42C19.04 32.41 17.02 31.91 15.23 30.95L14.95 30.8L10.19 30.8L10.19 26.04L10.04 25.76C9.09 23.97 8.58 21.95 8.57 19.91C8.55 16.54 9.84 13.38 12.2 11C14.56 8.62 17.71 7.3 21.08 7.29L21.14 7.29C22.83 7.29 24.47 7.62 26.01 8.26C27.52 8.9 28.87 9.8 30.03 10.97C31.19 12.12 32.1 13.48 32.73 14.99C33.39 16.55 33.72 18.2 33.71 19.91C33.69 23.28 32.37 26.43 29.99 28.79Z" fill="#FFFFFF" fill-opacity="1.000000" fill-rule="nonzero"/>
	</g>
</svg>
