<svg width="41.000000" height="41.000000" viewBox="0 0 41 41" fill="none" xmlns="http://www.w3.org/2000/svg" xmlns:xlink="http://www.w3.org/1999/xlink">
	<desc>
			Created with Pixso.
	</desc>
	<defs>
		<clipPath id="clip28_42">
			<rect id="instagram" rx="0.000000" width="40.000000" height="40.000000" transform="translate(0.500000 0.500000)" fill="white" fill-opacity="0"/>
		</clipPath>
	</defs>
	<rect id="instagram" rx="0.000000" width="40.000000" height="40.000000" transform="translate(0.500000 0.500000)" fill="#FFFFFF" fill-opacity="0"/>
	<g clip-path="url(#clip28_42)">
		<path id="Vector" d="M26.59 20.43C26.59 23.68 23.87 26.31 20.52 26.31C17.17 26.31 14.46 23.68 14.46 20.43C14.46 17.18 17.17 14.55 20.52 14.55C23.87 14.55 26.59 17.18 26.59 20.43Z" fill="#121214" fill-opacity="1.000000" fill-rule="evenodd"/>
		<path id="Vector" d="M29.91 20.76C29.91 25.78 25.71 29.86 20.52 29.86C15.34 29.86 11.13 25.78 11.13 20.76C11.13 19.86 11.27 18.99 11.52 18.17L8.75 18.17L8.75 30.93C8.75 31.59 9.29 32.13 9.95 32.13L30.99 32.13C31.65 32.13 32.19 31.59 32.19 30.93L32.19 18.17L29.53 18.17C29.78 18.99 29.91 19.86 29.91 20.76Z" fill="#121214" fill-opacity="1.000000" fill-rule="nonzero"/>
		<path id="Vector" d="M27.4 14.72L30.81 14.72C31.56 14.72 32.17 14.11 32.17 13.36L32.17 10.11C32.17 9.36 31.56 8.75 30.81 8.75L27.4 8.75C26.65 8.75 26.04 9.36 26.04 10.11L26.04 13.36C26.04 14.11 26.65 14.72 27.4 14.72Z" fill="#121214" fill-opacity="1.000000" fill-rule="nonzero"/>
		<path id="Vector" d="M20.5 0C9.17 0 0 9.17 0 20.5C0 31.82 9.17 41 20.5 41C31.82 41 41 31.82 41 20.5C41 9.17 31.82 0 20.5 0ZM31.72 35.6L9.27 35.6C7.13 35.6 5.39 34.02 5.39 31.72L5.39 9.27C5.39 6.97 7.13 5.39 9.27 5.39L31.72 5.39C33.86 5.39 35.6 6.97 35.6 9.27L35.6 31.72C35.6 34.02 33.86 35.6 31.72 35.6Z" fill="#121214" fill-opacity="1.000000" fill-rule="nonzero"/>
	</g>
</svg>
