<svg width="49.998535" height="45.000000" viewBox="0 0 49.9985 45" fill="none" xmlns="http://www.w3.org/2000/svg" xmlns:xlink="http://www.w3.org/1999/xlink">
	<desc>
			Created with Pixso.
	</desc>
	<defs/>
	<circle id="Ellipse 8" cx="27.498535" cy="22.500000" r="22.500000" fill="#037E8C" fill-opacity="1.000000"/>
	<path id="Vector" d="M15.03 1C15.29 1 15.56 0.99 15.82 1C16.22 1.03 16.62 1.06 17.02 1.11C17.38 1.16 17.75 1.23 18.11 1.31C18.37 1.37 18.64 1.43 18.89 1.51C19.15 1.59 19.39 1.7 19.64 1.78C19.87 1.87 20.11 1.93 20.34 2.02C20.52 2.1 20.69 2.2 20.87 2.28C21.05 2.37 21.21 2.43 21.37 2.51C21.54 2.6 21.71 2.7 21.88 2.8C22.02 2.88 22.16 2.95 22.31 3.03C22.45 3.12 22.55 3.17 22.67 3.25C22.89 3.41 23.12 3.57 23.34 3.74C23.68 4.01 24.04 4.28 24.36 4.57C24.69 4.86 24.95 5.16 25.24 5.46C25.54 5.76 25.78 6.03 26.03 6.33C26.18 6.52 26.32 6.73 26.45 6.93C26.62 7.18 26.8 7.42 26.96 7.67C27.08 7.87 27.17 8.1 27.29 8.31C27.37 8.47 27.48 8.62 27.57 8.78C27.61 8.86 27.65 8.94 27.68 9.03C27.76 9.22 27.82 9.43 27.91 9.62C27.99 9.82 28.09 10.03 28.18 10.24C28.22 10.34 28.25 10.43 28.28 10.53C28.33 10.7 28.36 10.87 28.41 11.04C28.46 11.2 28.53 11.38 28.59 11.56C28.59 11.57 28.59 11.58 28.59 11.59C28.63 11.83 28.66 12.07 28.7 12.31C28.76 12.61 28.82 12.9 28.88 13.19C28.88 13.22 28.89 13.25 28.89 13.27C28.92 13.75 28.98 14.23 28.98 14.7C28.98 15.28 28.93 15.85 28.88 16.43C28.87 16.63 28.83 16.82 28.79 17.02C28.73 17.32 28.67 17.63 28.59 17.93C28.53 18.16 28.47 18.4 28.39 18.63C28.31 18.86 28.2 19.12 28.12 19.37C28.07 19.51 28.04 19.64 27.99 19.78C27.94 19.92 27.88 20.02 27.83 20.14C27.78 20.26 27.74 20.38 27.69 20.5C27.6 20.71 27.52 20.92 27.43 21.12C27.34 21.31 27.26 21.49 27.17 21.67C27.08 21.85 26.98 22.01 26.89 22.18C26.81 22.35 26.74 22.51 26.66 22.66C26.54 22.88 26.41 23.09 26.29 23.3C26.24 23.38 26.2 23.46 26.16 23.54C26.01 23.8 25.86 24.06 25.71 24.32C25.59 24.54 25.46 24.76 25.33 24.97C25.19 25.18 25.01 25.42 24.86 25.64C24.74 25.82 24.64 26 24.52 26.17C24.3 26.48 24.07 26.79 23.84 27.1C23.73 27.26 23.63 27.42 23.51 27.58C23.33 27.82 23.14 28.07 22.95 28.31C22.8 28.51 22.64 28.72 22.49 28.92C22.27 29.19 22.06 29.46 21.84 29.73C21.64 29.98 21.44 30.23 21.24 30.47C21.11 30.63 20.97 30.79 20.82 30.95C20.63 31.17 20.43 31.39 20.24 31.61C19.94 31.94 19.64 32.27 19.34 32.6C19.16 32.8 18.98 33.01 18.8 33.21C18.62 33.41 18.42 33.62 18.22 33.82C17.91 34.15 17.6 34.47 17.28 34.79C17.01 35.06 16.74 35.35 16.47 35.62C16.22 35.87 15.98 36.13 15.71 36.35C15.57 36.47 15.4 36.55 15.22 36.58C15.04 36.62 14.86 36.61 14.68 36.56C14.39 36.49 14.19 36.25 13.97 36.04C13.59 35.67 13.21 35.31 12.84 34.93C12.63 34.72 12.44 34.48 12.23 34.26C12.06 34.08 11.87 33.91 11.7 33.73C11.36 33.36 11.03 32.98 10.69 32.62C10.46 32.36 10.21 32.12 9.98 31.86C9.73 31.58 9.49 31.28 9.25 30.99C9.09 30.8 8.91 30.62 8.75 30.43C8.55 30.19 8.35 29.95 8.16 29.71C7.94 29.43 7.73 29.17 7.52 28.9C7.36 28.7 7.2 28.5 7.05 28.3C6.85 28.05 6.64 27.81 6.45 27.55C6.33 27.39 6.23 27.22 6.12 27.06C6 26.9 5.85 26.72 5.73 26.54C5.54 26.26 5.36 25.97 5.17 25.68C5.02 25.45 4.86 25.23 4.71 25C4.63 24.89 4.57 24.77 4.5 24.66C4.4 24.5 4.28 24.34 4.19 24.18C4.07 23.97 3.98 23.76 3.86 23.55C3.74 23.35 3.62 23.16 3.5 22.96C3.41 22.79 3.34 22.61 3.25 22.44C3.16 22.27 3.06 22.12 2.97 21.95C2.93 21.87 2.89 21.78 2.85 21.7C2.75 21.5 2.65 21.3 2.55 21.1C2.5 21.01 2.47 20.91 2.44 20.82C2.29 20.45 2.15 20.07 2.01 19.69C1.92 19.47 1.82 19.24 1.73 19.01C1.69 18.88 1.65 18.74 1.62 18.6C1.58 18.43 1.54 18.25 1.49 18.07C1.43 17.81 1.36 17.55 1.3 17.29C1.25 17.03 1.17 16.74 1.13 16.46C1.1 16.22 1.1 15.98 1.09 15.74C1.07 15.33 1.03 14.92 1.04 14.51C1.04 14.12 1.07 13.73 1.11 13.34C1.15 13.03 1.23 12.73 1.29 12.42C1.29 12.39 1.29 12.36 1.3 12.34C1.36 12.04 1.43 11.75 1.5 11.45C1.54 11.27 1.57 11.08 1.63 10.9C1.67 10.75 1.74 10.61 1.8 10.47C1.83 10.37 1.87 10.26 1.9 10.16C1.98 9.94 2.04 9.72 2.13 9.5C2.21 9.31 2.32 9.14 2.42 8.96C2.46 8.88 2.49 8.8 2.53 8.73C2.63 8.52 2.73 8.3 2.85 8.1C2.98 7.85 3.12 7.6 3.27 7.36C3.47 7.06 3.69 6.78 3.91 6.49C4.23 6.06 4.58 5.65 4.96 5.28C5.27 5 5.53 4.68 5.84 4.41C6.07 4.2 6.34 4.03 6.59 3.85C6.79 3.7 6.97 3.53 7.17 3.38C7.3 3.29 7.44 3.22 7.58 3.14C7.78 3.01 7.98 2.88 8.18 2.76C8.33 2.67 8.49 2.6 8.64 2.52C8.83 2.43 9.01 2.33 9.2 2.24C9.39 2.16 9.6 2.09 9.79 2.02C9.88 1.98 9.96 1.94 10.05 1.91C10.29 1.81 10.53 1.71 10.78 1.63C10.95 1.58 11.13 1.55 11.3 1.5C11.5 1.44 11.7 1.38 11.89 1.33C11.91 1.32 11.93 1.31 11.96 1.31L12.74 1.19C13.12 1.14 13.49 1.06 13.87 1.03C14.25 1 14.65 1.03 15.03 1.03L15.03 1ZM15.28 10.27C13.39 10.27 12.11 10.96 11.16 12.26C10.59 13.04 10.29 14 10.3 14.97C10.3 15.59 10.42 16.2 10.66 16.78C10.9 17.35 11.25 17.87 11.68 18.31C12.12 18.74 12.64 19.09 13.22 19.33C13.79 19.56 14.4 19.68 15.02 19.68C16.68 19.68 18.02 18.94 18.95 17.56C19.47 16.79 19.74 15.89 19.72 14.97C19.69 13.38 19.04 12.1 17.78 11.16C16.96 10.54 16.03 10.24 15.28 10.27L15.28 10.27Z" fill="#000000" fill-opacity="1.000000" fill-rule="nonzero"/>
	<path id="Vector" d="M9.3 34.63C9.13 34.71 8.98 34.76 8.83 34.85C8.69 34.94 8.55 35.03 8.41 35.12C8.25 35.22 8.11 35.32 7.97 35.43C7.72 35.63 7.5 35.87 7.31 36.13C7.08 36.43 6.96 36.81 6.96 37.19C6.98 37.54 7.1 37.88 7.3 38.16C7.49 38.43 7.72 38.67 7.97 38.87C8.2 39.05 8.44 39.2 8.7 39.34C8.86 39.45 9.03 39.54 9.2 39.63C9.29 39.68 9.37 39.72 9.46 39.74C9.69 39.82 9.93 39.89 10.16 39.96C10.57 40.09 10.97 40.24 11.39 40.34C11.66 40.4 11.94 40.45 12.21 40.48C12.5 40.5 12.78 40.54 13.06 40.59C13.64 40.75 14.23 40.66 14.81 40.68C15.39 40.7 16 40.7 16.59 40.66C16.96 40.62 17.33 40.57 17.7 40.49C17.72 40.49 17.74 40.49 17.76 40.48C18.19 40.41 18.62 40.34 19.05 40.25C19.29 40.2 19.53 40.13 19.77 40.05C19.99 39.97 20.2 39.86 20.42 39.77C20.68 39.66 20.96 39.57 21.21 39.44C21.44 39.32 21.66 39.18 21.87 39.03C22.09 38.84 22.3 38.65 22.5 38.45C22.69 38.27 22.83 38.06 22.91 37.82C23.01 37.57 23.11 37.32 23.08 37.05C23.04 36.86 22.98 36.67 22.91 36.48C22.83 36.23 22.68 36 22.49 35.82C22.25 35.55 21.97 35.33 21.67 35.14C21.46 35.02 21.25 34.89 21.04 34.77C20.95 34.72 20.85 34.67 20.75 34.62C21.03 34.31 21.29 34.03 21.55 33.74C21.73 33.53 21.92 33.32 22.1 33.11C22.26 32.92 22.42 32.74 22.59 32.55C22.66 32.46 22.73 32.37 22.82 32.29C22.83 32.27 22.85 32.25 22.87 32.24C22.89 32.23 22.91 32.22 22.94 32.22C22.96 32.21 22.99 32.22 23.01 32.22C23.03 32.23 23.05 32.24 23.07 32.25C23.22 32.31 23.37 32.36 23.53 32.39C23.7 32.45 23.87 32.51 24.04 32.57C24.16 32.61 24.27 32.65 24.38 32.69C24.68 32.8 24.99 32.9 25.29 33.02C25.47 33.09 25.64 33.2 25.81 33.29C26.03 33.4 26.25 33.5 26.46 33.61C26.67 33.72 26.88 33.84 27.09 33.96C27.23 34.05 27.37 34.14 27.5 34.24C27.7 34.38 27.91 34.52 28.1 34.68C28.26 34.79 28.4 34.92 28.54 35.06C28.74 35.27 28.95 35.48 29.14 35.71C29.27 35.86 29.4 36.03 29.51 36.2C29.6 36.34 29.67 36.49 29.73 36.64C29.84 36.92 29.94 37.2 30.03 37.49C30.05 37.62 30.06 37.76 30.06 37.89C30.07 38.09 30.07 38.28 30.05 38.47C30.01 38.7 29.95 38.93 29.87 39.16C29.8 39.34 29.73 39.52 29.64 39.69C29.44 40.1 29.17 40.47 28.85 40.8C28.57 41.11 28.26 41.38 27.91 41.62C27.72 41.75 27.53 41.89 27.34 42.03C27.22 42.12 27.1 42.22 26.97 42.3C26.84 42.38 26.68 42.45 26.54 42.53C26.3 42.66 26.06 42.79 25.81 42.91C25.72 42.96 25.63 42.99 25.54 43.03C25.32 43.13 25.09 43.23 24.87 43.32C24.74 43.38 24.61 43.4 24.48 43.45C24.24 43.53 24 43.63 23.76 43.72C23.62 43.77 23.46 43.82 23.31 43.86C23.1 43.92 22.88 43.99 22.67 44.05C22.49 44.1 22.31 44.12 22.13 44.17C21.89 44.22 21.66 44.29 21.43 44.34C21.26 44.39 21.08 44.42 20.91 44.45C20.63 44.5 20.34 44.54 20.06 44.59C19.78 44.63 19.46 44.62 19.18 44.71C18.9 44.8 18.65 44.74 18.4 44.8C17.93 44.92 17.45 44.84 16.98 44.9C15.76 45.07 14.54 44.95 13.32 44.97C12.87 44.83 12.39 44.95 11.95 44.86C11.65 44.8 11.34 44.82 11.04 44.77C10.74 44.73 10.47 44.66 10.18 44.6C10.16 44.6 10.15 44.6 10.13 44.6C9.81 44.56 9.49 44.53 9.18 44.47C8.81 44.39 8.45 44.29 8.08 44.2C8.06 44.2 8.03 44.19 8.01 44.18C7.77 44.12 7.53 44.06 7.29 43.99C7.12 43.95 6.94 43.92 6.77 43.87C6.6 43.82 6.46 43.76 6.3 43.71C6.18 43.67 6.07 43.63 5.95 43.59C5.8 43.54 5.64 43.5 5.5 43.45C5.38 43.4 5.27 43.34 5.16 43.29C5.05 43.24 4.95 43.21 4.85 43.16C4.58 43.05 4.3 42.94 4.03 42.81C3.79 42.7 3.56 42.57 3.33 42.43C3.05 42.27 2.78 42.11 2.52 41.93C2.3 41.78 2.12 41.58 1.9 41.45C1.53 41.21 1.26 40.88 0.96 40.57C0.83 40.4 0.71 40.22 0.61 40.03C0.53 39.91 0.44 39.78 0.37 39.65C0.3 39.52 0.25 39.38 0.2 39.24C0.13 39.07 0.07 38.89 0.02 38.72C0.01 38.68 0 38.64 0 38.6C0 38.26 -0.02 37.92 0 37.59C0.03 37.39 0.09 37.2 0.18 37.01C0.27 36.77 0.37 36.54 0.49 36.31C0.61 36.13 0.73 35.95 0.87 35.78C1.01 35.6 1.16 35.43 1.31 35.26C1.6 34.95 1.93 34.67 2.3 34.44C2.57 34.25 2.83 34.05 3.11 33.88C3.33 33.74 3.57 33.64 3.8 33.53C4.03 33.41 4.28 33.27 4.52 33.15C4.72 33.06 4.93 33 5.12 32.92C5.32 32.83 5.55 32.73 5.76 32.64C5.87 32.6 5.98 32.56 6.09 32.53C6.24 32.49 6.4 32.46 6.55 32.41C6.71 32.36 6.87 32.3 7.03 32.25C7.06 32.24 7.08 32.24 7.11 32.25C7.13 32.25 7.16 32.26 7.18 32.28C7.41 32.53 7.64 32.79 7.87 33.05L8.38 33.62L9.3 34.63Z" fill="#000000" fill-opacity="1.000000" fill-rule="nonzero"/>
</svg>
